# xmcd CD database file
#
# Track frame offsets:
#	150
#	12855
#	25661
#	39648
#	53521
#	67552
#	80888
#	93851
#	106713
#	118017
#	130468
#	144756
#	156057
#	170095
#	180757
#	191095
#	202250
#	214084
#	226394
#	238169
#	251973
#
# Disc length: 3556 seconds
#
# Revision: 1
# Processed by: cddbd v1.5.1PL0 Copyright (c) Steve Scherf et al.
# Submitted via: CDex 1.51
#
DISCID=190de215
DTITLE=Bix Beiderbecke - The Collection
DYEAR=2000
DGENRE=Jazz
TTITLE0=Singin' The Blues
TTITLE1=Way Down Yonder In New Orleans
TTITLE2=I'm Comin' Again
TTITLE3=Ostrich Walk
TTITLE4=Riverboat Shuffle
TTITLE5=Three Blind Mice
TTITLE6=Sorry
TTITLE7=Royal Garden Blues
TTITLE8=Tiger Rag
TTITLE9=Davenport Blues
TTITLE10=Ol' Man River
TTITLE11=Coquette
TTITLE12=Georgia On My Mind
TTITLE13=Fidgetty Feeet
TTITLE14=Oh  Baby
TTITLE15=Copenhagen
TTITLE16=Susie
TTITLE17=In A Mist
TTITLE18=Sensation
TTITLE19=For No Reason At All In C
TTITLE20=Clarinet Marmelade
EXTD=YEAR: 2000
EXTT0=
EXTT1=
EXTT2=
EXTT3=
EXTT4=
EXTT5=
EXTT6=
EXTT7=
EXTT8=
EXTT9=
EXTT10=
EXTT11=
EXTT12=
EXTT13=
EXTT14=
EXTT15=
EXTT16=
EXTT17=
EXTT18=
EXTT19=
EXTT20=
PLAYORDER=
